<svg width="239" height="48" viewBox="0 0 239 48" fill="none" xmlns="http://www.w3.org/2000/svg">
<path d="M4.672 47.32V40.984H21.424C21.584 40.984 21.712 40.92 21.808 40.792C21.936 40.696 22 40.568 22 40.408V37H6.64C5.456 37 4.352 36.696 3.328 36.088C2.336 35.48 1.536 34.68 0.928 33.688C0.32 32.696 0.0160002 31.592 0.0160002 30.376V9.256H6.304V30.136C6.304 30.296 6.352 30.44 6.448 30.568C6.576 30.664 6.72 30.712 6.88 30.712H21.424C21.584 30.712 21.712 30.664 21.808 30.568C21.936 30.44 22 30.296 22 30.136V9.256H28.288V40.696C28.288 41.912 28 43.016 27.424 44.008C26.848 45.032 26.048 45.832 25.024 46.408C24.032 47.016 22.928 47.32 21.712 47.32H4.672ZM40.0274 37C38.8114 37 37.6914 36.696 36.6674 36.088C35.6754 35.48 34.8754 34.68 34.2674 33.688C33.6914 32.696 33.4034 31.592 33.4034 30.376V9.16H39.6914V30.136C39.6914 30.296 39.7394 30.44 39.8354 30.568C39.9634 30.664 40.1074 30.712 40.2674 30.712H54.8114C54.9714 30.712 55.0994 30.664 55.1954 30.568C55.3234 30.44 55.3874 30.296 55.3874 30.136V9.16H61.6754V30.376C61.6754 31.592 61.3714 32.696 60.7634 33.688C60.1874 34.68 59.4034 35.48 58.4114 36.088C57.4194 36.696 56.2994 37 55.0514 37H40.0274ZM72.1814 37C70.9654 37 69.8614 36.696 68.8694 36.088C67.8774 35.48 67.0774 34.68 66.4694 33.688C65.8614 32.696 65.5574 31.592 65.5574 30.376V15.784C65.5574 14.568 65.8614 13.464 66.4694 12.472C67.0774 11.48 67.8774 10.68 68.8694 10.072C69.8614 9.464 70.9654 9.16 72.1814 9.16H93.7814V15.448H72.4214C72.2614 15.448 72.1174 15.512 71.9894 15.64C71.8934 15.736 71.8454 15.864 71.8454 16.024V30.136C71.8454 30.296 71.8934 30.44 71.9894 30.568C72.1174 30.664 72.2614 30.712 72.4214 30.712H93.8294V37H72.1814ZM104.338 37C103.122 37 102.018 36.696 101.026 36.088C100.034 35.48 99.2336 34.68 98.6256 33.688C98.0176 32.696 97.7136 31.592 97.7136 30.376V15.784C97.7136 14.568 98.0176 13.464 98.6256 12.472C99.2336 11.48 100.034 10.68 101.026 10.072C102.018 9.464 103.122 9.16 104.338 9.16H119.362C120.578 9.16 121.682 9.464 122.674 10.072C123.698 10.68 124.498 11.48 125.074 12.472C125.682 13.464 125.986 14.568 125.986 15.784V26.248H104.002V30.136C104.002 30.296 104.05 30.44 104.146 30.568C104.274 30.664 104.418 30.712 104.578 30.712H125.986V37H104.338ZM104.002 20.584H119.698V16.024C119.698 15.864 119.634 15.736 119.506 15.64C119.41 15.512 119.282 15.448 119.122 15.448H104.578C104.418 15.448 104.274 15.512 104.146 15.64C104.05 15.736 104.002 15.864 104.002 16.024V20.584ZM131.092 37V30.712H137.38V37H131.092ZM147.103 37C145.855 37 144.735 36.696 143.743 36.088C142.751 35.48 141.951 34.68 141.343 33.688C140.767 32.696 140.479 31.592 140.479 30.376V15.784C140.479 14.568 140.767 13.464 141.343 12.472C141.951 11.48 142.751 10.68 143.743 10.072C144.735 9.464 145.855 9.16 147.103 9.16H162.511V0.0399981H168.799V37H147.103ZM147.391 30.712H161.935C162.095 30.712 162.223 30.664 162.319 30.568C162.447 30.44 162.511 30.296 162.511 30.136V16.024C162.511 15.864 162.447 15.736 162.319 15.64C162.223 15.512 162.095 15.448 161.935 15.448H147.391C147.231 15.448 147.087 15.512 146.959 15.64C146.863 15.736 146.815 15.864 146.815 16.024V30.136C146.815 30.296 146.863 30.44 146.959 30.568C147.087 30.664 147.231 30.712 147.391 30.712ZM179.431 37C178.215 37 177.111 36.696 176.119 36.088C175.127 35.48 174.327 34.68 173.719 33.688C173.111 32.696 172.807 31.592 172.807 30.376V15.784C172.807 14.568 173.111 13.464 173.719 12.472C174.327 11.48 175.127 10.68 176.119 10.072C177.111 9.464 178.215 9.16 179.431 9.16H194.455C195.671 9.16 196.775 9.464 197.767 10.072C198.791 10.68 199.591 11.48 200.167 12.472C200.775 13.464 201.079 14.568 201.079 15.784V26.248H179.095V30.136C179.095 30.296 179.143 30.44 179.239 30.568C179.367 30.664 179.511 30.712 179.671 30.712H201.079V37H179.431ZM179.095 20.584H194.791V16.024C194.791 15.864 194.727 15.736 194.599 15.64C194.503 15.512 194.375 15.448 194.215 15.448H179.671C179.511 15.448 179.367 15.512 179.239 15.64C179.143 15.736 179.095 15.864 179.095 16.024V20.584ZM217.758 37L202.446 9.16H209.694L220.686 29.368L231.63 9.16H238.878L223.518 37H217.758Z" fill="#FCFFE7"/>
</svg>
