<svg width="126" height="39" viewBox="0 0 126 39" fill="none" xmlns="http://www.w3.org/2000/svg">
<path d="M4.672 38.32V31.984H21.424C21.584 31.984 21.712 31.92 21.808 31.792C21.936 31.696 22 31.568 22 31.408V28H6.64C5.456 28 4.352 27.696 3.328 27.088C2.336 26.48 1.536 25.68 0.928 24.688C0.32 23.696 0.0160002 22.592 0.0160002 21.376V0.256H6.304V21.136C6.304 21.296 6.352 21.44 6.448 21.568C6.576 21.664 6.72 21.712 6.88 21.712H21.424C21.584 21.712 21.712 21.664 21.808 21.568C21.936 21.44 22 21.296 22 21.136V0.256H28.288V31.696C28.288 32.912 28 34.016 27.424 35.008C26.848 36.032 26.048 36.832 25.024 37.408C24.032 38.016 22.928 38.32 21.712 38.32H4.672ZM40.0274 28C38.8114 28 37.6914 27.696 36.6674 27.088C35.6754 26.48 34.8754 25.68 34.2674 24.688C33.6914 23.696 33.4034 22.592 33.4034 21.376V0.159998H39.6914V21.136C39.6914 21.296 39.7394 21.44 39.8354 21.568C39.9634 21.664 40.1074 21.712 40.2674 21.712H54.8114C54.9714 21.712 55.0994 21.664 55.1954 21.568C55.3234 21.44 55.3874 21.296 55.3874 21.136V0.159998H61.6754V21.376C61.6754 22.592 61.3714 23.696 60.7634 24.688C60.1874 25.68 59.4034 26.48 58.4114 27.088C57.4194 27.696 56.2994 28 55.0514 28H40.0274ZM72.1814 28C70.9654 28 69.8614 27.696 68.8694 27.088C67.8774 26.48 67.0774 25.68 66.4694 24.688C65.8614 23.696 65.5574 22.592 65.5574 21.376V6.784C65.5574 5.568 65.8614 4.464 66.4694 3.472C67.0774 2.48 67.8774 1.68 68.8694 1.072C69.8614 0.463998 70.9654 0.159998 72.1814 0.159998H93.7814V6.448H72.4214C72.2614 6.448 72.1174 6.512 71.9894 6.64C71.8934 6.736 71.8454 6.864 71.8454 7.024V21.136C71.8454 21.296 71.8934 21.44 71.9894 21.568C72.1174 21.664 72.2614 21.712 72.4214 21.712H93.8294V28H72.1814ZM104.338 28C103.122 28 102.018 27.696 101.026 27.088C100.034 26.48 99.2336 25.68 98.6256 24.688C98.0176 23.696 97.7136 22.592 97.7136 21.376V6.784C97.7136 5.568 98.0176 4.464 98.6256 3.472C99.2336 2.48 100.034 1.68 101.026 1.072C102.018 0.463998 103.122 0.159998 104.338 0.159998H119.362C120.578 0.159998 121.682 0.463998 122.674 1.072C123.698 1.68 124.498 2.48 125.074 3.472C125.682 4.464 125.986 5.568 125.986 6.784V17.248H104.002V21.136C104.002 21.296 104.05 21.44 104.146 21.568C104.274 21.664 104.418 21.712 104.578 21.712H125.986V28H104.338ZM104.002 11.584H119.698V7.024C119.698 6.864 119.634 6.736 119.506 6.64C119.41 6.512 119.282 6.448 119.122 6.448H104.578C104.418 6.448 104.274 6.512 104.146 6.64C104.05 6.736 104.002 6.864 104.002 7.024V11.584Z" fill="black"/>
</svg>
